<svg xmlns="http://www.w3.org/2000/svg" xmlns:xlink="http://www.w3.org/1999/xlink" width="256" zoomAndPan="magnify" viewBox="0 0 192 191.999996" height="256" preserveAspectRatio="xMidYMid meet" version="1.0"><defs><clipPath id="537028a4f0"><path d="M 22.582031 2.25 L 168 2.25 L 168 148 L 22.582031 148 Z M 22.582031 2.25 " clip-rule="nonzero"/></clipPath><clipPath id="be5938201f"><path d="M 29.910156 28.46875 C 32.820312 19.539062 39.820312 12.535156 48.75 9.625 C 78.761719 -0.148438 111.097656 -0.148438 141.105469 9.625 C 150.035156 12.535156 157.039062 19.539062 159.945312 28.46875 C 169.722656 58.484375 169.722656 90.824219 159.945312 120.835938 C 157.039062 129.769531 150.035156 136.773438 141.105469 139.679688 C 111.097656 149.457031 78.761719 149.457031 48.75 139.679688 C 39.820312 136.773438 32.820312 129.769531 29.910156 120.835938 C 20.136719 90.824219 20.136719 58.484375 29.910156 28.46875 Z M 29.910156 28.46875 " clip-rule="nonzero"/></clipPath><linearGradient x1="22.278" gradientTransform="matrix(3.247537, 0, 0, 3.247997, 22.58034, 2.29508)" y1="-0.0138794" x2="22.278" gradientUnits="userSpaceOnUse" y2="45.013875" id="1388785fc7"><stop stop-opacity="1" stop-color="rgb(92.199707%, 25.498962%, 54.499817%)" offset="0"/><stop stop-opacity="1" stop-color="rgb(92.204285%, 25.62561%, 54.428101%)" offset="0.0078125"/><stop stop-opacity="1" stop-color="rgb(92.216492%, 25.883484%, 54.281616%)" offset="0.015625"/><stop stop-opacity="1" stop-color="rgb(92.228699%, 26.145935%, 54.133606%)" offset="0.0234375"/><stop stop-opacity="1" stop-color="rgb(92.23938%, 26.408386%, 53.985596%)" offset="0.03125"/><stop stop-opacity="1" stop-color="rgb(92.251587%, 26.672363%, 53.83606%)" offset="0.0390625"/><stop stop-opacity="1" stop-color="rgb(92.263794%, 26.934814%, 53.688049%)" offset="0.046875"/><stop stop-opacity="1" stop-color="rgb(92.276001%, 27.197266%, 53.540039%)" offset="0.0546875"/><stop stop-opacity="1" stop-color="rgb(92.286682%, 27.459717%, 53.392029%)" offset="0.0625"/><stop stop-opacity="1" stop-color="rgb(92.298889%, 27.723694%, 53.242493%)" offset="0.0703125"/><stop stop-opacity="1" stop-color="rgb(92.311096%, 27.986145%, 53.094482%)" offset="0.078125"/><stop stop-opacity="1" stop-color="rgb(92.323303%, 28.248596%, 52.946472%)" offset="0.0859375"/><stop stop-opacity="1" stop-color="rgb(92.33551%, 28.512573%, 52.796936%)" offset="0.09375"/><stop stop-opacity="1" stop-color="rgb(92.346191%, 28.775024%, 52.648926%)" offset="0.101563"/><stop stop-opacity="1" stop-color="rgb(92.358398%, 29.037476%, 52.500916%)" offset="0.109375"/><stop stop-opacity="1" stop-color="rgb(92.370605%, 29.301453%, 52.352905%)" offset="0.117188"/><stop stop-opacity="1" stop-color="rgb(92.382812%, 29.563904%, 52.203369%)" offset="0.125"/><stop stop-opacity="1" stop-color="rgb(92.393494%, 29.826355%, 52.055359%)" offset="0.132812"/><stop stop-opacity="1" stop-color="rgb(92.405701%, 30.090332%, 51.907349%)" offset="0.140625"/><stop stop-opacity="1" stop-color="rgb(92.417908%, 30.352783%, 51.759338%)" offset="0.148438"/><stop stop-opacity="1" stop-color="rgb(92.430115%, 30.615234%, 51.609802%)" offset="0.15625"/><stop stop-opacity="1" stop-color="rgb(92.440796%, 30.877686%, 51.461792%)" offset="0.164063"/><stop stop-opacity="1" stop-color="rgb(92.453003%, 31.141663%, 51.313782%)" offset="0.171875"/><stop stop-opacity="1" stop-color="rgb(92.46521%, 31.404114%, 51.164246%)" offset="0.179688"/><stop stop-opacity="1" stop-color="rgb(92.477417%, 31.666565%, 51.016235%)" offset="0.1875"/><stop stop-opacity="1" stop-color="rgb(92.488098%, 31.930542%, 50.868225%)" offset="0.195312"/><stop stop-opacity="1" stop-color="rgb(92.500305%, 32.192993%, 50.720215%)" offset="0.203125"/><stop stop-opacity="1" stop-color="rgb(92.512512%, 32.455444%, 50.570679%)" offset="0.210938"/><stop stop-opacity="1" stop-color="rgb(92.524719%, 32.719421%, 50.422668%)" offset="0.21875"/><stop stop-opacity="1" stop-color="rgb(92.5354%, 32.981873%, 50.274658%)" offset="0.226562"/><stop stop-opacity="1" stop-color="rgb(92.547607%, 33.244324%, 50.125122%)" offset="0.234375"/><stop stop-opacity="1" stop-color="rgb(92.559814%, 33.506775%, 49.977112%)" offset="0.242188"/><stop stop-opacity="1" stop-color="rgb(92.572021%, 33.770752%, 49.829102%)" offset="0.25"/><stop stop-opacity="1" stop-color="rgb(92.584229%, 34.033203%, 49.681091%)" offset="0.257812"/><stop stop-opacity="1" stop-color="rgb(92.59491%, 34.295654%, 49.531555%)" offset="0.265625"/><stop stop-opacity="1" stop-color="rgb(92.607117%, 34.559631%, 49.383545%)" offset="0.273438"/><stop stop-opacity="1" stop-color="rgb(92.619324%, 34.822083%, 49.235535%)" offset="0.28125"/><stop stop-opacity="1" stop-color="rgb(92.631531%, 35.084534%, 49.087524%)" offset="0.289063"/><stop stop-opacity="1" stop-color="rgb(92.642212%, 35.348511%, 48.937988%)" offset="0.296875"/><stop stop-opacity="1" stop-color="rgb(92.654419%, 35.610962%, 48.789978%)" offset="0.304688"/><stop stop-opacity="1" stop-color="rgb(92.666626%, 35.873413%, 48.641968%)" offset="0.3125"/><stop stop-opacity="1" stop-color="rgb(92.678833%, 36.135864%, 48.492432%)" offset="0.320313"/><stop stop-opacity="1" stop-color="rgb(92.689514%, 36.399841%, 48.344421%)" offset="0.328125"/><stop stop-opacity="1" stop-color="rgb(92.701721%, 36.662292%, 48.196411%)" offset="0.335938"/><stop stop-opacity="1" stop-color="rgb(92.713928%, 36.924744%, 48.048401%)" offset="0.34375"/><stop stop-opacity="1" stop-color="rgb(92.726135%, 37.188721%, 47.898865%)" offset="0.351563"/><stop stop-opacity="1" stop-color="rgb(92.736816%, 37.451172%, 47.750854%)" offset="0.359375"/><stop stop-opacity="1" stop-color="rgb(92.749023%, 37.713623%, 47.602844%)" offset="0.367188"/><stop stop-opacity="1" stop-color="rgb(92.76123%, 37.9776%, 47.454834%)" offset="0.375"/><stop stop-opacity="1" stop-color="rgb(92.773438%, 38.240051%, 47.305298%)" offset="0.382813"/><stop stop-opacity="1" stop-color="rgb(92.784119%, 38.502502%, 47.157288%)" offset="0.390625"/><stop stop-opacity="1" stop-color="rgb(92.796326%, 38.764954%, 47.009277%)" offset="0.398438"/><stop stop-opacity="1" stop-color="rgb(92.808533%, 39.028931%, 46.859741%)" offset="0.40625"/><stop stop-opacity="1" stop-color="rgb(92.82074%, 39.291382%, 46.711731%)" offset="0.414063"/><stop stop-opacity="1" stop-color="rgb(92.831421%, 39.553833%, 46.563721%)" offset="0.421875"/><stop stop-opacity="1" stop-color="rgb(92.843628%, 39.81781%, 46.41571%)" offset="0.429688"/><stop stop-opacity="1" stop-color="rgb(92.855835%, 40.080261%, 46.266174%)" offset="0.4375"/><stop stop-opacity="1" stop-color="rgb(92.868042%, 40.342712%, 46.118164%)" offset="0.445313"/><stop stop-opacity="1" stop-color="rgb(92.880249%, 40.606689%, 45.970154%)" offset="0.453125"/><stop stop-opacity="1" stop-color="rgb(92.89093%, 40.869141%, 45.820618%)" offset="0.460938"/><stop stop-opacity="1" stop-color="rgb(92.903137%, 41.131592%, 45.672607%)" offset="0.46875"/><stop stop-opacity="1" stop-color="rgb(92.915344%, 41.394043%, 45.524597%)" offset="0.476563"/><stop stop-opacity="1" stop-color="rgb(92.927551%, 41.65802%, 45.376587%)" offset="0.484375"/><stop stop-opacity="1" stop-color="rgb(92.938232%, 41.920471%, 45.227051%)" offset="0.492188"/><stop stop-opacity="1" stop-color="rgb(92.950439%, 42.182922%, 45.079041%)" offset="0.5"/><stop stop-opacity="1" stop-color="rgb(92.962646%, 42.446899%, 44.93103%)" offset="0.507812"/><stop stop-opacity="1" stop-color="rgb(92.974854%, 42.709351%, 44.78302%)" offset="0.515625"/><stop stop-opacity="1" stop-color="rgb(92.985535%, 42.971802%, 44.633484%)" offset="0.523438"/><stop stop-opacity="1" stop-color="rgb(92.997742%, 43.235779%, 44.485474%)" offset="0.53125"/><stop stop-opacity="1" stop-color="rgb(93.009949%, 43.49823%, 44.337463%)" offset="0.539062"/><stop stop-opacity="1" stop-color="rgb(93.022156%, 43.760681%, 44.187927%)" offset="0.546875"/><stop stop-opacity="1" stop-color="rgb(93.032837%, 44.023132%, 44.039917%)" offset="0.554688"/><stop stop-opacity="1" stop-color="rgb(93.045044%, 44.287109%, 43.891907%)" offset="0.5625"/><stop stop-opacity="1" stop-color="rgb(93.057251%, 44.549561%, 43.743896%)" offset="0.570313"/><stop stop-opacity="1" stop-color="rgb(93.069458%, 44.812012%, 43.59436%)" offset="0.578125"/><stop stop-opacity="1" stop-color="rgb(93.080139%, 45.075989%, 43.44635%)" offset="0.585938"/><stop stop-opacity="1" stop-color="rgb(93.092346%, 45.33844%, 43.29834%)" offset="0.59375"/><stop stop-opacity="1" stop-color="rgb(93.104553%, 45.600891%, 43.15033%)" offset="0.601563"/><stop stop-opacity="1" stop-color="rgb(93.11676%, 45.864868%, 43.000793%)" offset="0.609375"/><stop stop-opacity="1" stop-color="rgb(93.128967%, 46.127319%, 42.852783%)" offset="0.617188"/><stop stop-opacity="1" stop-color="rgb(93.139648%, 46.389771%, 42.704773%)" offset="0.625"/><stop stop-opacity="1" stop-color="rgb(93.151855%, 46.652222%, 42.555237%)" offset="0.632813"/><stop stop-opacity="1" stop-color="rgb(93.164062%, 46.916199%, 42.407227%)" offset="0.640625"/><stop stop-opacity="1" stop-color="rgb(93.17627%, 47.17865%, 42.259216%)" offset="0.648438"/><stop stop-opacity="1" stop-color="rgb(93.186951%, 47.441101%, 42.111206%)" offset="0.65625"/><stop stop-opacity="1" stop-color="rgb(93.199158%, 47.705078%, 41.96167%)" offset="0.664063"/><stop stop-opacity="1" stop-color="rgb(93.211365%, 47.967529%, 41.81366%)" offset="0.671875"/><stop stop-opacity="1" stop-color="rgb(93.223572%, 48.22998%, 41.665649%)" offset="0.679688"/><stop stop-opacity="1" stop-color="rgb(93.234253%, 48.493958%, 41.517639%)" offset="0.6875"/><stop stop-opacity="1" stop-color="rgb(93.24646%, 48.756409%, 41.368103%)" offset="0.695313"/><stop stop-opacity="1" stop-color="rgb(93.258667%, 49.01886%, 41.220093%)" offset="0.703125"/><stop stop-opacity="1" stop-color="rgb(93.270874%, 49.281311%, 41.072083%)" offset="0.710938"/><stop stop-opacity="1" stop-color="rgb(93.281555%, 49.545288%, 40.922546%)" offset="0.71875"/><stop stop-opacity="1" stop-color="rgb(93.293762%, 49.807739%, 40.774536%)" offset="0.726563"/><stop stop-opacity="1" stop-color="rgb(93.305969%, 50.07019%, 40.626526%)" offset="0.734375"/><stop stop-opacity="1" stop-color="rgb(93.318176%, 50.334167%, 40.478516%)" offset="0.742188"/><stop stop-opacity="1" stop-color="rgb(93.328857%, 50.596619%, 40.328979%)" offset="0.75"/><stop stop-opacity="1" stop-color="rgb(93.341064%, 50.85907%, 40.180969%)" offset="0.757813"/><stop stop-opacity="1" stop-color="rgb(93.353271%, 51.123047%, 40.032959%)" offset="0.765625"/><stop stop-opacity="1" stop-color="rgb(93.365479%, 51.385498%, 39.883423%)" offset="0.773438"/><stop stop-opacity="1" stop-color="rgb(93.377686%, 51.647949%, 39.735413%)" offset="0.78125"/><stop stop-opacity="1" stop-color="rgb(93.388367%, 51.911926%, 39.587402%)" offset="0.789063"/><stop stop-opacity="1" stop-color="rgb(93.400574%, 52.174377%, 39.439392%)" offset="0.796875"/><stop stop-opacity="1" stop-color="rgb(93.412781%, 52.436829%, 39.289856%)" offset="0.804688"/><stop stop-opacity="1" stop-color="rgb(93.424988%, 52.69928%, 39.141846%)" offset="0.8125"/><stop stop-opacity="1" stop-color="rgb(93.435669%, 52.963257%, 38.993835%)" offset="0.820313"/><stop stop-opacity="1" stop-color="rgb(93.447876%, 53.225708%, 38.845825%)" offset="0.828125"/><stop stop-opacity="1" stop-color="rgb(93.460083%, 53.488159%, 38.696289%)" offset="0.835938"/><stop stop-opacity="1" stop-color="rgb(93.47229%, 53.752136%, 38.548279%)" offset="0.84375"/><stop stop-opacity="1" stop-color="rgb(93.482971%, 54.014587%, 38.400269%)" offset="0.851563"/><stop stop-opacity="1" stop-color="rgb(93.495178%, 54.277039%, 38.250732%)" offset="0.859375"/><stop stop-opacity="1" stop-color="rgb(93.507385%, 54.541016%, 38.102722%)" offset="0.867188"/><stop stop-opacity="1" stop-color="rgb(93.519592%, 54.803467%, 37.954712%)" offset="0.875"/><stop stop-opacity="1" stop-color="rgb(93.530273%, 55.065918%, 37.806702%)" offset="0.882812"/><stop stop-opacity="1" stop-color="rgb(93.54248%, 55.328369%, 37.657166%)" offset="0.890625"/><stop stop-opacity="1" stop-color="rgb(93.554688%, 55.592346%, 37.509155%)" offset="0.898438"/><stop stop-opacity="1" stop-color="rgb(93.566895%, 55.854797%, 37.361145%)" offset="0.90625"/><stop stop-opacity="1" stop-color="rgb(93.577576%, 56.117249%, 37.213135%)" offset="0.914062"/><stop stop-opacity="1" stop-color="rgb(93.589783%, 56.381226%, 37.063599%)" offset="0.921875"/><stop stop-opacity="1" stop-color="rgb(93.60199%, 56.643677%, 36.915588%)" offset="0.929688"/><stop stop-opacity="1" stop-color="rgb(93.614197%, 56.906128%, 36.767578%)" offset="0.9375"/><stop stop-opacity="1" stop-color="rgb(93.626404%, 57.170105%, 36.618042%)" offset="0.945312"/><stop stop-opacity="1" stop-color="rgb(93.637085%, 57.432556%, 36.470032%)" offset="0.953125"/><stop stop-opacity="1" stop-color="rgb(93.649292%, 57.695007%, 36.322021%)" offset="0.960938"/><stop stop-opacity="1" stop-color="rgb(93.661499%, 57.957458%, 36.174011%)" offset="0.96875"/><stop stop-opacity="1" stop-color="rgb(93.673706%, 58.221436%, 36.024475%)" offset="0.976562"/><stop stop-opacity="1" stop-color="rgb(93.684387%, 58.483887%, 35.876465%)" offset="0.984375"/><stop stop-opacity="1" stop-color="rgb(93.695068%, 58.706665%, 35.751343%)" offset="1"/></linearGradient><clipPath id="008cd15d98"><path d="M 65 22 L 128 22 L 128 76 L 65 76 Z M 65 22 " clip-rule="nonzero"/></clipPath><clipPath id="6d9f9d9fd2"><path d="M 100.859375 75.375 C 115.550781 75.375 127.460938 63.460938 127.460938 48.765625 C 127.460938 34.070312 115.550781 22.160156 100.859375 22.160156 L 65.140625 22.160156 L 65.140625 75.375 Z M 104.027344 52.761719 C 105.867188 51.703125 105.867188 49 104.027344 47.941406 L 91.339844 40.644531 C 89.53125 39.601562 87.285156 40.933594 87.285156 43.054688 L 87.285156 57.648438 C 87.285156 59.765625 89.53125 61.101562 91.339844 60.058594 Z M 104.027344 52.761719 " clip-rule="evenodd"/></clipPath></defs><rect x="-19.2" width="230.4" fill="#ffffff" y="-19.2" height="230.399995" fill-opacity="1"/><rect x="-19.2" width="230.4" fill="#ffffff" y="-19.2" height="230.399995" fill-opacity="1"/><rect x="-19.2" width="230.4" fill="#ffffff" y="-19.2" height="230.399995" fill-opacity="1"/><g clip-path="url(#537028a4f0)"><g clip-path="url(#be5938201f)"><path fill="url(#1388785fc7)" d="M 22.582031 2.25 L 22.582031 148.5 L 169.582031 148.5 L 169.582031 2.25 Z M 22.582031 2.25 " fill-rule="nonzero"/></g></g><path fill="#ffffff" d="M 87.820312 105.804688 L 87.820312 85.871094 L 116.132812 128.59375 C 127.183594 123.96875 130.902344 111.734375 124.25 101.894531 L 109.769531 80.480469 L 65.140625 80.480469 L 65.140625 128.488281 C 77.664062 128.488281 87.820312 118.332031 87.820312 105.804688 Z M 86.277344 73.1875 L 104.839844 73.1875 L 103.328125 70.953125 L 86.238281 73.027344 Z M 86.277344 73.1875 " fill-opacity="1" fill-rule="evenodd"/><g clip-path="url(#008cd15d98)"><g clip-path="url(#6d9f9d9fd2)"><path fill="#ffffff" d="M 65.140625 22.160156 L 65.140625 75.375 L 127.460938 75.375 L 127.460938 22.160156 Z M 65.140625 22.160156 " fill-opacity="1" fill-rule="nonzero"/></g></g><path fill="#000000" d="M 22.308594 169.476562 L 21.886719 169.476562 L 21.886719 180.136719 L 16.8125 180.136719 L 16.8125 155.511719 L 24.582031 155.511719 C 27.21875 155.511719 29.1875 156.097656 30.496094 157.269531 C 31.800781 158.417969 32.457031 160.074219 32.457031 162.230469 C 32.457031 163.542969 32 164.75 31.089844 165.855469 C 30.179688 166.933594 29.074219 167.554688 27.765625 167.71875 C 28.699219 167.976562 29.421875 168.410156 29.9375 169.019531 C 30.449219 169.605469 30.984375 170.566406 31.546875 171.90625 L 35.011719 180.136719 L 29.796875 180.136719 L 26.402344 172.257812 C 25.910156 171.128906 25.386719 170.390625 24.828125 170.039062 C 24.289062 169.664062 23.449219 169.476562 22.308594 169.476562 Z M 24.441406 159.523438 L 21.886719 159.523438 L 21.886719 165.46875 L 24.089844 165.46875 C 25.023438 165.46875 25.746094 165.160156 26.261719 164.550781 C 26.796875 163.941406 27.066406 163.191406 27.066406 162.300781 C 27.066406 160.449219 26.191406 159.523438 24.441406 159.523438 Z M 24.441406 159.523438 " fill-opacity="1" fill-rule="nonzero"/><path fill="#000000" d="M 50.988281 179.082031 C 48.769531 179.949219 46.71875 180.382812 44.828125 180.382812 C 39.34375 180.382812 36.605469 177.402344 36.605469 171.445312 C 36.605469 168.421875 37.269531 166.136719 38.597656 164.585938 C 39.929688 163.015625 41.863281 162.230469 44.40625 162.230469 C 46.507812 162.230469 48.1875 162.886719 49.445312 164.199219 C 50.707031 165.515625 51.335938 167.460938 51.335938 170.039062 C 51.335938 171.070312 51.289062 171.976562 51.195312 172.75 L 41.082031 172.75 C 41.082031 174.132812 41.457031 175.152344 42.203125 175.808594 C 42.949219 176.464844 43.953125 176.792969 45.210938 176.792969 C 46.472656 176.792969 48.140625 176.511719 50.214844 175.949219 Z M 46.960938 169.511719 L 46.960938 169.265625 C 46.960938 168.1875 46.730469 167.320312 46.261719 166.664062 C 45.796875 166.007812 45.0625 165.679688 44.058594 165.679688 C 43.054688 165.679688 42.308594 166.042969 41.816406 166.769531 C 41.328125 167.496094 41.070312 168.410156 41.046875 169.511719 Z M 46.960938 169.511719 " fill-opacity="1" fill-rule="nonzero"/><path fill="#000000" d="M 60.125 188.507812 L 55.574219 188.507812 L 55.574219 162.582031 L 59.039062 162.582031 L 59.878906 164.445312 C 60.742188 163.71875 61.523438 163.167969 62.222656 162.792969 C 62.949219 162.417969 63.753906 162.230469 64.636719 162.230469 C 66.574219 162.230469 68.042969 163.039062 69.046875 164.65625 C 70.074219 166.277344 70.585938 168.539062 70.585938 171.445312 C 70.585938 174.355469 69.933594 176.582031 68.628906 178.132812 C 67.320312 179.65625 65.78125 180.417969 64.007812 180.417969 C 62.726562 180.417969 61.429688 179.855469 60.125 178.730469 Z M 60.125 168 L 60.125 174.4375 C 60.871094 175.65625 61.792969 176.265625 62.890625 176.265625 C 64.007812 176.265625 64.777344 175.867188 65.199219 175.070312 C 65.640625 174.273438 65.863281 173.054688 65.863281 171.410156 C 65.863281 169.769531 65.628906 168.503906 65.164062 167.613281 C 64.699219 166.722656 64.113281 166.277344 63.414062 166.277344 C 62.410156 166.277344 61.3125 166.851562 60.125 168 Z M 60.125 168 " fill-opacity="1" fill-rule="nonzero"/><path fill="#000000" d="M 74.679688 155.546875 L 79.226562 155.546875 L 79.226562 180.171875 L 74.679688 180.171875 Z M 74.679688 155.546875 " fill-opacity="1" fill-rule="nonzero"/><path fill="#000000" d="M 94.511719 180.171875 L 93.8125 178.414062 C 92.996094 179.164062 92.273438 179.691406 91.640625 179.996094 C 91.011719 180.277344 90.253906 180.417969 89.367188 180.417969 C 87.875 180.417969 86.566406 179.902344 85.449219 178.871094 C 84.351562 177.816406 83.804688 176.417969 83.804688 174.683594 C 83.804688 172.949219 84.480469 171.589844 85.832031 170.601562 C 87.1875 169.59375 89.226562 169.089844 91.957031 169.089844 L 93.390625 169.089844 C 93.390625 168.082031 93.148438 167.273438 92.65625 166.664062 C 92.191406 166.054688 91.46875 165.75 90.488281 165.75 C 88.785156 165.75 87.058594 165.984375 85.308594 166.453125 L 84.539062 163.355469 C 86.847656 162.605469 89.167969 162.230469 91.503906 162.230469 C 95.75 162.230469 97.871094 164.222656 97.871094 168.210938 L 97.871094 180.171875 Z M 93.320312 172.46875 L 91.816406 172.46875 C 90.511719 172.46875 89.625 172.644531 89.15625 172.996094 C 88.691406 173.347656 88.457031 173.863281 88.457031 174.542969 C 88.457031 175.199219 88.632812 175.738281 88.984375 176.160156 C 89.332031 176.582031 89.789062 176.792969 90.347656 176.792969 C 91.140625 176.792969 92.132812 176.160156 93.320312 174.894531 Z M 93.320312 172.46875 " fill-opacity="1" fill-rule="nonzero"/><path fill="#000000" d="M 105.777344 180.523438 L 100.039062 162.582031 L 104.589844 162.582031 L 107.984375 174.71875 L 111.414062 162.582031 L 115.890625 162.582031 L 110.046875 180.171875 C 109.324219 182.328125 108.414062 184.054688 107.316406 185.34375 C 106.222656 186.632812 104.84375 187.675781 103.1875 188.472656 L 101.507812 185.238281 C 102.441406 184.839844 103.316406 184.230469 104.132812 183.40625 C 104.949219 182.609375 105.5 181.648438 105.777344 180.523438 Z M 105.777344 180.523438 " fill-opacity="1" fill-rule="nonzero"/><path fill="#000000" d="M 118.414062 180.171875 L 118.414062 155.546875 L 126.113281 155.546875 C 128.84375 155.546875 130.882812 156.097656 132.238281 157.199219 C 133.589844 158.277344 134.265625 159.828125 134.265625 161.84375 C 134.265625 163.203125 133.882812 164.328125 133.113281 165.21875 C 132.367188 166.113281 131.339844 166.652344 130.03125 166.839844 C 131.6875 167.121094 132.972656 167.789062 133.882812 168.84375 C 134.792969 169.898438 135.246094 171.210938 135.246094 172.785156 C 135.246094 175.011719 134.417969 176.804688 132.761719 178.167969 C 131.105469 179.503906 128.808594 180.171875 125.867188 180.171875 Z M 123.242188 176.125 L 126.707031 176.125 C 127.828125 176.125 128.726562 175.832031 129.402344 175.246094 C 130.078125 174.636719 130.417969 173.828125 130.417969 172.820312 C 130.417969 171.789062 130.03125 170.894531 129.261719 170.144531 C 128.515625 169.371094 127.417969 168.984375 125.972656 168.984375 L 123.242188 168.984375 Z M 126.289062 159.59375 L 123.242188 159.59375 L 123.242188 164.972656 L 125.9375 164.972656 C 126.847656 164.972656 127.652344 164.691406 128.351562 164.128906 C 129.078125 163.566406 129.4375 162.839844 129.4375 161.949219 C 129.4375 160.496094 128.386719 159.710938 126.289062 159.59375 Z M 126.289062 159.59375 " fill-opacity="1" fill-rule="nonzero"/><path fill="#000000" d="M 143.710938 159.945312 L 139.164062 159.945312 L 139.164062 155.546875 L 143.710938 155.546875 Z M 143.710938 180.171875 L 139.164062 180.171875 L 139.164062 162.582031 L 143.710938 162.582031 Z M 143.710938 180.171875 " fill-opacity="1" fill-rule="nonzero"/><path fill="#000000" d="M 153.832031 168.492188 L 153.832031 180.171875 L 149.25 180.171875 L 149.25 162.582031 L 152.886719 162.582031 L 153.308594 164.304688 C 154.242188 163.554688 155.023438 163.027344 155.652344 162.722656 C 156.28125 162.394531 156.832031 162.230469 157.296875 162.230469 C 157.789062 162.230469 158.113281 162.242188 158.277344 162.265625 C 158.441406 162.265625 158.582031 162.277344 158.699219 162.300781 C 158.8125 162.324219 159.011719 162.371094 159.292969 162.441406 L 158.871094 166.628906 C 158.453125 166.488281 157.878906 166.417969 157.15625 166.417969 C 156.175781 166.417969 155.070312 167.109375 153.832031 168.492188 Z M 153.832031 168.492188 " fill-opacity="1" fill-rule="nonzero"/><path fill="#000000" d="M 176.183594 180.171875 L 172.753906 180.171875 L 172.050781 178.167969 C 170.09375 179.644531 168.308594 180.382812 166.699219 180.382812 C 165.109375 180.382812 163.792969 179.632812 162.742188 178.132812 C 161.714844 176.605469 161.203125 174.367188 161.203125 171.410156 C 161.203125 168.433594 161.785156 166.160156 162.953125 164.585938 C 164.144531 163.015625 165.695312 162.230469 167.609375 162.230469 C 168.867188 162.230469 170.21875 162.816406 171.667969 163.988281 L 171.667969 155.546875 L 176.183594 155.546875 Z M 171.632812 174.753906 L 171.632812 167.753906 C 170.394531 166.722656 169.359375 166.207031 168.519531 166.207031 C 167.679688 166.207031 167 166.640625 166.488281 167.507812 C 166 168.375 165.753906 169.664062 165.753906 171.375 C 165.753906 174.660156 166.640625 176.300781 168.414062 176.300781 C 169.324219 176.300781 170.394531 175.785156 171.632812 174.753906 Z M 171.632812 174.753906 " fill-opacity="1" fill-rule="nonzero"/></svg>